<svg width="32" height="32" viewBox="0 0 32 32" fill="none" xmlns="http://www.w3.org/2000/svg">
  <path d="M16 28C22.6274 28 28 22.6274 28 16C28 9.37258 22.6274 4 16 4C9.37258 4 4 9.37258 4 16C4 22.6274 9.37258 28 16 28Z" stroke="#2563eb" stroke-width="2.5" stroke-linecap="round" stroke-linejoin="round"/>
  <path d="M4 16H28" stroke="#2563eb" stroke-width="2" stroke-linecap="round" stroke-linejoin="round"/>
  <path d="M16 4C19 8 20 12 20 16C20 20 19 24 16 28C13 24 12 20 12 16C12 12 13 8 16 4Z" stroke="#2563eb" stroke-width="2" stroke-linecap="round" stroke-linejoin="round"/>
  <path d="M10 7C12 9 15 11 18 11" stroke="#f59e0b" stroke-width="2" stroke-linecap="round"/>
</svg>
