<svg width="180" height="40" viewBox="0 0 180 40" fill="none" xmlns="http://www.w3.org/2000/svg">
  <path d="M20 35C28.2843 35 35 28.2843 35 20C35 11.7157 28.2843 5 20 5C11.7157 5 5 11.7157 5 20C5 28.2843 11.7157 35 20 35Z" stroke="#2563eb" stroke-width="2.5" stroke-linecap="round" stroke-linejoin="round"/>
  <path d="M5 20H35" stroke="#2563eb" stroke-width="2" stroke-linecap="round" stroke-linejoin="round"/>
  <path d="M20 5C23.5 9.5 25 14.5 25 20C25 25.5 23.5 30.5 20 35C16.5 30.5 15 25.5 15 20C15 14.5 16.5 9.5 20 5Z" stroke="#2563eb" stroke-width="2" stroke-linecap="round" stroke-linejoin="round"/>
  <path d="M12 8C14 11 18 13 22 13" stroke="#f59e0b" stroke-width="2.5" stroke-linecap="round"/>
  <text x="45" y="28" font-family="Inter, sans-serif" font-weight="900" font-size="22" fill="#0f172a">TRAVELORA</text>
</svg>
